# xmcd
#
# Track frame offsets:
#	150
#	14555
#	28956
#	43161
#	63794
#	86379
#	106417
#	122809
#	151502
#	180036
#	194474
#	215498
#
# Disc length: 3069 seconds
#
# Revision: 0
# Processed by: cddbd v1.5.2PL0 Copyright (c) Steve Scherf et al.
# Submitted via: EasyCDDAExtractor 16.0.6.1
#
DISCID=960bfb0c
DTITLE=Green Carpet - Better Than That
DYEAR=2010
DGENRE=Blues
TTITLE0=Across My Chest
TTITLE1=Better Than That
TTITLE2=Tallulah
TTITLE3=I Stand Alone
TTITLE4=Jammin' With Sarah
TTITLE5=Love Changin' Blues
TTITLE6=Struggle In Vain
TTITLE7=Tanker - Thoughts
TTITLE8=Boddington Time
TTITLE9=Can't Stop Lovin'
TTITLE10=That'll Work
TTITLE11=Man Song
EXTD=
EXTT0=
EXTT1=
EXTT2=
EXTT3=
EXTT4=
EXTT5=
EXTT6=
EXTT7=
EXTT8=
EXTT9=
EXTT10=
EXTT11=
PLAYORDER=
